<?xml version="1.0" encoding="UTF-8" standalone="no"?>

<svg
   fill="#ffffffE6"
   width="24.375"
   height="10.3125"
   viewBox="0 0 26 11"
   version="1.1"
   id="svg16"
   sodipodi:docname="battery2.svg"
   inkscape:version="1.2.2 (732a01da63, 2022-12-09)"
   xmlns:inkscape="http://www.inkscape.org/namespaces/inkscape"
   xmlns:sodipodi="http://sodipodi.sourceforge.net/DTD/sodipodi-0.dtd"
   xmlns="http://www.w3.org/2000/svg"
   xmlns:svg="http://www.w3.org/2000/svg"
   xmlns:rdf="http://www.w3.org/1999/02/22-rdf-syntax-ns#"
   xmlns:cc="http://creativecommons.org/ns#"
   xmlns:dc="http://purl.org/dc/elements/1.1/">
  <defs
     id="defs20" />
  <sodipodi:namedview
     id="namedview18"
     pagecolor="#97ffff"
     bordercolor="#000000"
     borderopacity="0.25"
     inkscape:showpageshadow="2"
     inkscape:pageopacity="0"
     inkscape:pagecheckerboard="0"
     inkscape:deskcolor="#d1d1d1"
     showgrid="true"
     inkscape:zoom="27.633333"
     inkscape:cx="14.981906"
     inkscape:cy="17.913148"
     inkscape:window-width="1920"
     inkscape:window-height="1009"
     inkscape:window-x="-8"
     inkscape:window-y="-8"
     inkscape:window-maximized="1"
     inkscape:current-layer="svg16">
    <inkscape:grid
       type="xygrid"
       id="grid229" />
  </sodipodi:namedview>
  <title
     id="title12">battery</title>
  <path
     d="M 25,3 H 24 V 2 C 24,0.896 23.104,0 22,0 H 2 C 0.895,0 0,0.896 0,2 v 7 c 0,1.104 0.895,2 2,2 h 20 c 1.104,0 2,-0.896 2,-2 V 8 h 1 c 0.552,0 1,-0.448 1,-1 V 4 C 26,3.447 25.552,3 25,3 Z m -2,6 c 0,0.552 -0.448,1 -1,1 H 2 C 1.447,10 1,9.552 1,9 V 2 C 1,1.447 1.447,1 2,1 h 20 c 0.552,0 1,0.447 1,1 z M 2,9 H 19.541616 L 19.503016,2.038601 2,2 Z"
     id="path14"
     sodipodi:nodetypes="scsssssssscsssssssssssssccccc" />
  <metadata
     id="metadata180">
    <rdf:RDF>
      <cc:Work
         rdf:about="">
        <dc:title>battery</dc:title>
      </cc:Work>
    </rdf:RDF>
  </metadata>
</svg>
