<?xml version="1.0" encoding="UTF-8" standalone="no"?>
<svg
   width="22"
   height="18"
   viewBox="0 0 22 18"
   version="1.1"
   id="svg120"
   sodipodi:docname="camera2.svg"
   inkscape:version="1.2.2 (732a01da63, 2022-12-09)"
   xmlns:inkscape="http://www.inkscape.org/namespaces/inkscape"
   xmlns:sodipodi="http://sodipodi.sourceforge.net/DTD/sodipodi-0.dtd"
   xmlns="http://www.w3.org/2000/svg"
   xmlns:svg="http://www.w3.org/2000/svg">
  <defs
     id="defs124" />
  <sodipodi:namedview
     id="namedview122"
     pagecolor="#ffffff"
     bordercolor="#000000"
     borderopacity="0.25"
     inkscape:showpageshadow="2"
     inkscape:pageopacity="0.0"
     inkscape:pagecheckerboard="0"
     inkscape:deskcolor="#d1d1d1"
     showgrid="false"
     inkscape:zoom="46.055556"
     inkscape:cx="11.008444"
     inkscape:cy="7.2738239"
     inkscape:window-width="1920"
     inkscape:window-height="1009"
     inkscape:window-x="-8"
     inkscape:window-y="-8"
     inkscape:window-maximized="1"
     inkscape:current-layer="svg120" />
  <path
     d="M19,19.6666667 C21,19.6666667 20.3333333,16.6666667 22.3333333,16.6666667 C24.3333333,16.6666667 27.6666667,16.6666667 27.6666667,16.6666667 C29.6666667,16.6666667 29,19.6666667 31,19.6666667 L33.4361148,19.6666667 C34.3276335,19.6666667 34.6509198,19.7594923 34.9768457,19.9337994 C35.3027716,20.1081065 35.5585602,20.363895 35.7328673,20.689821 C35.9071744,21.0157469 36,21.3390331 36,22.2305519 L36,30.7694481 C36,31.6609669 35.9071744,31.9842531 35.7328673,32.310179 C35.5585602,32.636105 35.3027716,32.8918935 34.9768457,33.0662006 C34.6509198,33.2405077 34.3276335,33.3333333 33.4361148,33.3333333 L16.5638852,33.3333333 C15.6723665,33.3333333 15.3490802,33.2405077 15.0231543,33.0662006 C14.6972284,32.8918935 14.4414398,32.636105 14.2671327,32.310179 C14.0928256,31.9842531 14,31.6609669 14,30.7694481 L14,22.2305519 C14,21.3390331 14.0928256,21.0157469 14.2671327,20.689821 C14.4414398,20.363895 14.6972284,20.1081065 15.0231543,19.9337994 C15.3490802,19.7594923 15.6723665,19.6666667 16.5638852,19.6666667 L19,19.6666667 Z M31.3333333,22.3333333 C31.7015232,22.3333333 32,22.0348565 32,21.6666667 C32,21.2984768 31.7015232,21 31.3333333,21 C30.9651435,21 30.6666667,21.2984768 30.6666667,21.6666667 C30.6666667,22.0348565 30.9651435,22.3333333 31.3333333,22.3333333 Z M25,31.6666667 C27.7614237,31.6666667 30,29.4280904 30,26.6666667 C30,23.9052429 27.7614237,21.6666667 25,21.6666667 C22.2385763,21.6666667 20,23.9052429 20,26.6666667 C20,29.4280904 22.2385763,31.6666667 25,31.6666667 Z M25,30.6666667 C22.790861,30.6666667 21,28.8758057 21,26.6666667 C21,24.4575277 22.790861,22.6666667 25,22.6666667 C27.209139,22.6666667 29,24.4575277 29,26.6666667 C29,28.8758057 27.209139,30.6666667 25,30.6666667 Z M16.3333333,18 L18,18 C18.1840949,18 18.3333333,18.1492384 18.3333333,18.3333333 L18.3333333,19 L16,19 L16,18.3333333 C16,18.1492384 16.1492384,18 16.3333333,18 Z"
     fill="#fff"
     fill-opacity="0.5"
     stroke="none"
     stroke-width="1"
     fill-rule="evenodd"
     id="path118"
     transform="translate(-14.000000, -16.000000)" />
</svg>
